<?xml version="1.0" standalone="no"?>
<!DOCTYPE svg PUBLIC "-//W3C//DTD SVG 20010904//EN"
 "http://www.w3.org/TR/2001/REC-SVG-20010904/DTD/svg10.dtd">
<svg version="1.0" xmlns="http://www.w3.org/2000/svg"
 width="700.000000pt" height="700.000000pt" viewBox="0 0 700.000000 700.000000"
 preserveAspectRatio="xMidYMid meet">
<metadata>
Created by potrace 1.11, written by Peter Selinger 2001-2013
</metadata>
<g transform="translate(0.000000,700.000000) scale(0.100000,-0.100000)"
fill="#000000" stroke="none">
<path d="M793 6985 c-307 -56 -558 -244 -693 -520 -27 -55 -60 -140 -72 -190
l-23 -90 0 -2685 0 -2685 22 -88 c88 -344 356 -612 699 -699 l89 -23 2685 0
2685 0 89 23 c344 87 611 354 698 698 l23 89 0 2685 0 2685 -23 90 c-30 119
-106 271 -183 368 -121 152 -316 278 -509 329 l-85 23 -2665 2 c-2156 1 -2679
-1 -2737 -12z m3072 -1044 c533 -80 1011 -324 1392 -710 382 -386 618 -874
694 -1431 17 -122 17 -478 0 -600 -72 -528 -287 -992 -634 -1367 -393 -426
-896 -690 -1484 -780 -154 -23 -508 -23 -668 1 -580 85 -1085 350 -1485 781
-332 357 -554 828 -627 1330 -21 146 -24 494 -5 635 110 825 603 1528 1332
1900 289 147 599 234 940 264 105 9 420 -4 545 -23z"/>
<path d="M4240 5252 c0 -182 -80 -337 -221 -431 -111 -74 -150 -81 -479 -81
l-289 0 -3 -288 -3 -289 -30 -49 c-19 -30 -49 -60 -79 -79 l-49 -30 -289 -3
-288 -3 0 -249 0 -250 759 0 c824 0 803 1 878 -56 18 -13 45 -46 60 -72 l28
-47 3 -407 3 -408 149 0 c82 0 173 -5 202 -11 141 -29 265 -126 331 -258 l36
-71 46 52 c177 202 325 482 401 756 50 182 68 319 68 517 0 198 -13 310 -59
491 -142 557 -515 1019 -1034 1281 -69 35 -129 63 -133 63 -4 0 -8 -35 -8 -78z"/>
<path d="M1556 3854 c-98 -544 29 -1091 357 -1531 283 -379 683 -640 1142
-746 61 -14 129 -28 153 -31 l42 -6 0 238 0 238 -71 11 c-146 23 -289 124
-358 252 -46 88 -61 165 -61 331 l0 145 -594 594 -593 593 -17 -88z"/>
</g>
</svg>
